<?xml version="1.0" encoding="utf-8" standalone="no"?>
<!DOCTYPE svg PUBLIC "-//W3C//DTD SVG 1.1//EN"
  "http://www.w3.org/Graphics/SVG/1.1/DTD/svg11.dtd">
<svg xmlns:xlink="http://www.w3.org/1999/xlink" width="496.244687pt" height="460.193467pt" viewBox="0 0 496.244687 460.193467" xmlns="http://www.w3.org/2000/svg" version="1.1">
 <metadata>
  <rdf:RDF xmlns:dc="http://purl.org/dc/elements/1.1/" xmlns:cc="http://creativecommons.org/ns#" xmlns:rdf="http://www.w3.org/1999/02/22-rdf-syntax-ns#">
   <cc:Work>
    <dc:type rdf:resource="http://purl.org/dc/dcmitype/StillImage"/>
    <dc:date>2026-07-12T14:28:31.096360</dc:date>
    <dc:format>image/svg+xml</dc:format>
    <dc:creator>
     <cc:Agent>
      <dc:title>Matplotlib v3.11.0, https://matplotlib.org/</dc:title>
     </cc:Agent>
    </dc:creator>
   </cc:Work>
  </rdf:RDF>
 </metadata>
 <defs>
  <style type="text/css">*{stroke-linejoin: round; stroke-linecap: butt}</style>
 </defs>
 <g id="figure_1">
  <g id="patch_1">
   <path d="M 0 460.193467 
L 496.244687 460.193467 
L 496.244687 0 
L 0 0 
z
" style="fill: #ffffff"/>
  </g>
  <g id="axes_1">
   <g id="patch_2">
    <path d="M 41.484961 423.22374 
L 489.044688 423.22374 
L 489.044688 37.059458 
L 41.484961 37.059458 
z
" style="fill: #ffffff"/>
   </g>
   <g id="FillBetweenPolyCollection_1">
    <defs>
     <path id="mfac2f6e14c" d="M 50.091879 -415.707773 
L 50.091879 -341.445411 
L 71.609173 -341.445411 
L 71.609173 -415.707773 
L 71.609173 -415.707773 
L 50.091879 -415.707773 
z
" style="stroke: #27ae60; stroke-opacity: 0.06"/>
    </defs>
    <g clip-path="url(#pbcdec13d9d)">
     <use xlink:href="#mfac2f6e14c" x="0" y="460.193467" style="fill: #27ae60; fill-opacity: 0.06; stroke: #27ae60; stroke-opacity: 0.06"/>
    </g>
   </g>
   <g id="FillBetweenPolyCollection_2">
    <defs>
     <path id="m6bfc1f2909" d="M 50.091879 -415.707773 
L 50.091879 -341.445411 
L 71.609173 -341.445411 
L 71.609173 -415.707773 
L 71.609173 -415.707773 
L 50.091879 -415.707773 
z
" style="stroke: #27ae60; stroke-opacity: 0.03"/>
    </defs>
    <g clip-path="url(#pbcdec13d9d)">
     <use xlink:href="#m6bfc1f2909" x="0" y="460.193467" style="fill: #27ae60; fill-opacity: 0.03; stroke: #27ae60; stroke-opacity: 0.03"/>
    </g>
   </g>
   <g id="patch_3">
    <path d="M 56.977413 96.840659 
C 58.974672 96.840659 60.890397 95.471328 62.302672 93.034245 
C 63.714947 90.597161 64.508466 87.291303 64.508466 83.844746 
C 64.508466 80.39819 63.714947 77.092331 62.302672 74.655248 
C 60.890397 72.218164 58.974672 70.848833 56.977413 70.848833 
C 54.980154 70.848833 53.064429 72.218164 51.652154 74.655248 
C 50.239879 77.092331 49.44636 80.39819 49.44636 83.844746 
C 49.44636 87.291303 50.239879 90.597161 51.652154 93.034245 
C 53.064429 95.471328 54.980154 96.840659 56.977413 96.840659 
z
" clip-path="url(#pbcdec13d9d)" style="fill: #27ae60; opacity: 0.08; stroke-dasharray: 3.7,1.6; stroke-dashoffset: 0; stroke: #27ae60; stroke-linejoin: miter"/>
   </g>
   <g id="matplotlib.axis_1">
    <g id="xtick_1">
     <g id="line2d_1">
      <path d="M 50.091879 423.22374 
L 50.091879 37.059458 
" clip-path="url(#pbcdec13d9d)" style="fill: none; stroke-dasharray: 0.8,1.32; stroke-dashoffset: 0; stroke: #b0b0b0; stroke-opacity: 0.3; stroke-width: 0.8"/>
     </g>
     <g id="line2d_2">
      <defs>
       <path id="m666531e462" d="M 0 0 
L 0 3.5 
" style="stroke: #000000; stroke-width: 0.8"/>
      </defs>
      <g>
       <use xlink:href="#m666531e462" x="50.091879" y="423.22374" style="stroke: #000000; stroke-width: 0.8"/>
      </g>
     </g>
     <g id="text_1">
      <text style="font-size: 10px; font-family: 'Arial', 'DejaVu Sans', 'Segoe UI', sans-serif; text-anchor: middle" x="50.091879" y="437.504014" transform="rotate(-0 50.091879 437.504014)">0.0</text>
     </g>
    </g>
    <g id="xtick_2">
     <g id="line2d_3">
      <path d="M 136.161057 423.22374 
L 136.161057 37.059458 
" clip-path="url(#pbcdec13d9d)" style="fill: none; stroke-dasharray: 0.8,1.32; stroke-dashoffset: 0; stroke: #b0b0b0; stroke-opacity: 0.3; stroke-width: 0.8"/>
     </g>
     <g id="line2d_4">
      <g>
       <use xlink:href="#m666531e462" x="136.161057" y="423.22374" style="stroke: #000000; stroke-width: 0.8"/>
      </g>
     </g>
     <g id="text_2">
      <text style="font-size: 10px; font-family: 'Arial', 'DejaVu Sans', 'Segoe UI', sans-serif; text-anchor: middle" x="136.161057" y="437.504014" transform="rotate(-0 136.161057 437.504014)">0.2</text>
     </g>
    </g>
    <g id="xtick_3">
     <g id="line2d_5">
      <path d="M 222.230235 423.22374 
L 222.230235 37.059458 
" clip-path="url(#pbcdec13d9d)" style="fill: none; stroke-dasharray: 0.8,1.32; stroke-dashoffset: 0; stroke: #b0b0b0; stroke-opacity: 0.3; stroke-width: 0.8"/>
     </g>
     <g id="line2d_6">
      <g>
       <use xlink:href="#m666531e462" x="222.230235" y="423.22374" style="stroke: #000000; stroke-width: 0.8"/>
      </g>
     </g>
     <g id="text_3">
      <text style="font-size: 10px; font-family: 'Arial', 'DejaVu Sans', 'Segoe UI', sans-serif; text-anchor: middle" x="222.230235" y="437.504014" transform="rotate(-0 222.230235 437.504014)">0.4</text>
     </g>
    </g>
    <g id="xtick_4">
     <g id="line2d_7">
      <path d="M 308.299413 423.22374 
L 308.299413 37.059458 
" clip-path="url(#pbcdec13d9d)" style="fill: none; stroke-dasharray: 0.8,1.32; stroke-dashoffset: 0; stroke: #b0b0b0; stroke-opacity: 0.3; stroke-width: 0.8"/>
     </g>
     <g id="line2d_8">
      <g>
       <use xlink:href="#m666531e462" x="308.299413" y="423.22374" style="stroke: #000000; stroke-width: 0.8"/>
      </g>
     </g>
     <g id="text_4">
      <text style="font-size: 10px; font-family: 'Arial', 'DejaVu Sans', 'Segoe UI', sans-serif; text-anchor: middle" x="308.299413" y="437.504014" transform="rotate(-0 308.299413 437.504014)">0.6</text>
     </g>
    </g>
    <g id="xtick_5">
     <g id="line2d_9">
      <path d="M 394.368591 423.22374 
L 394.368591 37.059458 
" clip-path="url(#pbcdec13d9d)" style="fill: none; stroke-dasharray: 0.8,1.32; stroke-dashoffset: 0; stroke: #b0b0b0; stroke-opacity: 0.3; stroke-width: 0.8"/>
     </g>
     <g id="line2d_10">
      <g>
       <use xlink:href="#m666531e462" x="394.368591" y="423.22374" style="stroke: #000000; stroke-width: 0.8"/>
      </g>
     </g>
     <g id="text_5">
      <text style="font-size: 10px; font-family: 'Arial', 'DejaVu Sans', 'Segoe UI', sans-serif; text-anchor: middle" x="394.368591" y="437.504014" transform="rotate(-0 394.368591 437.504014)">0.8</text>
     </g>
    </g>
    <g id="xtick_6">
     <g id="line2d_11">
      <path d="M 480.43777 423.22374 
L 480.43777 37.059458 
" clip-path="url(#pbcdec13d9d)" style="fill: none; stroke-dasharray: 0.8,1.32; stroke-dashoffset: 0; stroke: #b0b0b0; stroke-opacity: 0.3; stroke-width: 0.8"/>
     </g>
     <g id="line2d_12">
      <g>
       <use xlink:href="#m666531e462" x="480.43777" y="423.22374" style="stroke: #000000; stroke-width: 0.8"/>
      </g>
     </g>
     <g id="text_6">
      <text style="font-size: 10px; font-family: 'Arial', 'DejaVu Sans', 'Segoe UI', sans-serif; text-anchor: middle" x="480.43777" y="437.504014" transform="rotate(-0 480.43777 437.504014)">1.0</text>
     </g>
    </g>
    <g id="text_7">
     <text style="font-weight: 700; font-size: 10px; font-family: 'Arial', 'DejaVu Sans', 'Segoe UI', sans-serif; text-anchor: middle; fill: #003d6b" x="265.264824" y="450.888779" transform="rotate(-0 265.264824 450.888779)">1 − Specificity (False Positive Rate)</text>
    </g>
   </g>
   <g id="matplotlib.axis_2">
    <g id="ytick_1">
     <g id="line2d_13">
      <path d="M 41.484961 415.797504 
L 489.044688 415.797504 
" clip-path="url(#pbcdec13d9d)" style="fill: none; stroke-dasharray: 0.8,1.32; stroke-dashoffset: 0; stroke: #b0b0b0; stroke-opacity: 0.3; stroke-width: 0.8"/>
     </g>
     <g id="line2d_14">
      <defs>
       <path id="mcd4b4a2c59" d="M 0 0 
L -3.5 0 
" style="stroke: #000000; stroke-width: 0.8"/>
      </defs>
      <g>
       <use xlink:href="#mcd4b4a2c59" x="41.484961" y="415.797504" style="stroke: #000000; stroke-width: 0.8"/>
      </g>
     </g>
     <g id="text_8">
      <text style="font-size: 10px; font-family: 'Arial', 'DejaVu Sans', 'Segoe UI', sans-serif; text-anchor: end" x="34.484961" y="419.437641" transform="rotate(-0 34.484961 419.437641)">0.0</text>
     </g>
    </g>
    <g id="ytick_2">
     <g id="line2d_15">
      <path d="M 41.484961 341.535142 
L 489.044688 341.535142 
" clip-path="url(#pbcdec13d9d)" style="fill: none; stroke-dasharray: 0.8,1.32; stroke-dashoffset: 0; stroke: #b0b0b0; stroke-opacity: 0.3; stroke-width: 0.8"/>
     </g>
     <g id="line2d_16">
      <g>
       <use xlink:href="#mcd4b4a2c59" x="41.484961" y="341.535142" style="stroke: #000000; stroke-width: 0.8"/>
      </g>
     </g>
     <g id="text_9">
      <text style="font-size: 10px; font-family: 'Arial', 'DejaVu Sans', 'Segoe UI', sans-serif; text-anchor: end" x="34.484961" y="345.175279" transform="rotate(-0 34.484961 345.175279)">0.2</text>
     </g>
    </g>
    <g id="ytick_3">
     <g id="line2d_17">
      <path d="M 41.484961 267.27278 
L 489.044688 267.27278 
" clip-path="url(#pbcdec13d9d)" style="fill: none; stroke-dasharray: 0.8,1.32; stroke-dashoffset: 0; stroke: #b0b0b0; stroke-opacity: 0.3; stroke-width: 0.8"/>
     </g>
     <g id="line2d_18">
      <g>
       <use xlink:href="#mcd4b4a2c59" x="41.484961" y="267.27278" style="stroke: #000000; stroke-width: 0.8"/>
      </g>
     </g>
     <g id="text_10">
      <text style="font-size: 10px; font-family: 'Arial', 'DejaVu Sans', 'Segoe UI', sans-serif; text-anchor: end" x="34.484961" y="270.912917" transform="rotate(-0 34.484961 270.912917)">0.4</text>
     </g>
    </g>
    <g id="ytick_4">
     <g id="line2d_19">
      <path d="M 41.484961 193.010418 
L 489.044688 193.010418 
" clip-path="url(#pbcdec13d9d)" style="fill: none; stroke-dasharray: 0.8,1.32; stroke-dashoffset: 0; stroke: #b0b0b0; stroke-opacity: 0.3; stroke-width: 0.8"/>
     </g>
     <g id="line2d_20">
      <g>
       <use xlink:href="#mcd4b4a2c59" x="41.484961" y="193.010418" style="stroke: #000000; stroke-width: 0.8"/>
      </g>
     </g>
     <g id="text_11">
      <text style="font-size: 10px; font-family: 'Arial', 'DejaVu Sans', 'Segoe UI', sans-serif; text-anchor: end" x="34.484961" y="196.650555" transform="rotate(-0 34.484961 196.650555)">0.6</text>
     </g>
    </g>
    <g id="ytick_5">
     <g id="line2d_21">
      <path d="M 41.484961 118.748056 
L 489.044688 118.748056 
" clip-path="url(#pbcdec13d9d)" style="fill: none; stroke-dasharray: 0.8,1.32; stroke-dashoffset: 0; stroke: #b0b0b0; stroke-opacity: 0.3; stroke-width: 0.8"/>
     </g>
     <g id="line2d_22">
      <g>
       <use xlink:href="#mcd4b4a2c59" x="41.484961" y="118.748056" style="stroke: #000000; stroke-width: 0.8"/>
      </g>
     </g>
     <g id="text_12">
      <text style="font-size: 10px; font-family: 'Arial', 'DejaVu Sans', 'Segoe UI', sans-serif; text-anchor: end" x="34.484961" y="122.388193" transform="rotate(-0 34.484961 122.388193)">0.8</text>
     </g>
    </g>
    <g id="ytick_6">
     <g id="line2d_23">
      <path d="M 41.484961 44.485694 
L 489.044688 44.485694 
" clip-path="url(#pbcdec13d9d)" style="fill: none; stroke-dasharray: 0.8,1.32; stroke-dashoffset: 0; stroke: #b0b0b0; stroke-opacity: 0.3; stroke-width: 0.8"/>
     </g>
     <g id="line2d_24">
      <g>
       <use xlink:href="#mcd4b4a2c59" x="41.484961" y="44.485694" style="stroke: #000000; stroke-width: 0.8"/>
      </g>
     </g>
     <g id="text_13">
      <text style="font-size: 10px; font-family: 'Arial', 'DejaVu Sans', 'Segoe UI', sans-serif; text-anchor: end" x="34.484961" y="48.125831" transform="rotate(-0 34.484961 48.125831)">1.0</text>
     </g>
    </g>
    <g id="text_14">
     <text style="font-weight: 700; font-size: 10px; font-family: 'Arial', 'DejaVu Sans', 'Segoe UI', sans-serif; text-anchor: middle; fill: #003d6b" x="14.480273" y="230.141599" transform="rotate(-90 14.480273 230.141599)">Sensitivity (True Positive Rate)</text>
    </g>
   </g>
   <g id="line2d_25">
    <path d="M 50.091879 415.797504 
L 480.43777 44.485694 
" clip-path="url(#pbcdec13d9d)" style="fill: none; stroke-dasharray: 4.44,1.92; stroke-dashoffset: 0; stroke: #cccccc; stroke-width: 1.2"/>
   </g>
   <g id="line2d_26">
    <path d="M 41.484961 118.748056 
L 63.862947 118.748056 
" clip-path="url(#pbcdec13d9d)" style="fill: none"/>
   </g>
   <g id="patch_4">
    <path d="M 41.484961 423.22374 
L 41.484961 37.059458 
" style="fill: none; stroke: #000000; stroke-width: 0.8; stroke-linejoin: miter; stroke-linecap: square"/>
   </g>
   <g id="patch_5">
    <path d="M 489.044688 423.22374 
L 489.044688 37.059458 
" style="fill: none; stroke: #000000; stroke-width: 0.8; stroke-linejoin: miter; stroke-linecap: square"/>
   </g>
   <g id="patch_6">
    <path d="M 41.484961 423.22374 
L 489.044688 423.22374 
" style="fill: none; stroke: #000000; stroke-width: 0.8; stroke-linejoin: miter; stroke-linecap: square"/>
   </g>
   <g id="patch_7">
    <path d="M 41.484961 37.059458 
L 489.044688 37.059458 
" style="fill: none; stroke: #000000; stroke-width: 0.8; stroke-linejoin: miter; stroke-linecap: square"/>
   </g>
   <g id="patch_8">
    <path d="M 90.071895 346.594153 
Q 70.915211 333.85094 52.503235 321.603115 
" style="fill: none; opacity: 0.6; stroke: #d4380d; stroke-width: 0.8; stroke-linecap: round"/>
    <path d="M 54.392546 324.901676 
L 52.503235 321.603115 
L 56.27567 322.070803 
" style="fill: none; opacity: 0.6; stroke: #d4380d; stroke-width: 0.8; stroke-linecap: round"/>
   </g>
   <g id="text_15">
    <text style="font-weight: 700; font-size: 8.5px; font-family: 'Arial', 'DejaVu Sans', 'Segoe UI', sans-serif; fill: #d4380d" transform="translate(75.912632 356.529319)">RW DB pre-filter</text>
    <text style="font-weight: 700; font-size: 8.5px; font-family: 'Arial', 'DejaVu Sans', 'Segoe UI', sans-serif; fill: #d4380d" transform="translate(75.912632 365.78054)">only</text>
   </g>
   <g id="patch_9">
    <path d="M 86.580487 344.674458 
Q 69.145729 331.997123 52.434376 319.845798 
" style="fill: none; opacity: 0.6; stroke: #e67e22; stroke-width: 0.8; stroke-linecap: round"/>
    <path d="M 54.184502 323.22027 
L 52.434376 319.845798 
L 56.184029 320.47038 
" style="fill: none; opacity: 0.6; stroke: #e67e22; stroke-width: 0.8; stroke-linecap: round"/>
   </g>
   <g id="text_16">
    <text style="font-weight: 700; font-size: 8.5px; font-family: 'Arial', 'DejaVu Sans', 'Segoe UI', sans-serif; fill: #e67e22" transform="translate(75.912632 354.67276)">+ Journal risk</text>
    <text style="font-weight: 700; font-size: 8.5px; font-family: 'Arial', 'DejaVu Sans', 'Segoe UI', sans-serif; fill: #e67e22" transform="translate(75.912632 363.923981)">rules</text>
   </g>
   <g id="patch_10">
    <path d="M 74.772958 75.356412 
Q 63.37694 79.275739 52.826725 82.904176 
" style="fill: none; opacity: 0.6; stroke: #27ae60; stroke-width: 0.8; stroke-linecap: round"/>
    <path d="M 56.594771 83.405997 
L 52.826725 82.904176 
L 55.489009 80.190831 
" style="fill: none; opacity: 0.6; stroke: #27ae60; stroke-width: 0.8; stroke-linecap: round"/>
   </g>
   <g id="text_17">
    <text style="font-weight: 700; font-size: 8.5px; font-family: 'Arial', 'DejaVu Sans', 'Segoe UI', sans-serif; fill: #27ae60" transform="translate(67.305714 61.028102)">Full pipeline</text>
    <text style="font-weight: 700; font-size: 8.5px; font-family: 'Arial', 'DejaVu Sans', 'Segoe UI', sans-serif; fill: #27ae60" transform="translate(67.305714 70.279322)">(RW+DeepSeek CoT)</text>
   </g>
   <g id="patch_11">
    <path d="M 64.33058 36.339872 
Q 58.078553 39.916596 52.602884 43.049172 
" style="fill: none; opacity: 0.6; stroke: #95a5a6; stroke-width: 0.8; stroke-linecap: round"/>
    <path d="M 56.398241 42.836421 
L 52.602884 43.049172 
L 54.709897 39.885236 
" style="fill: none; opacity: 0.6; stroke: #95a5a6; stroke-width: 0.8; stroke-linecap: round"/>
   </g>
   <g id="text_18">
    <text style="font-weight: 700; font-size: 8.5px; font-family: 'Arial', 'DejaVu Sans', 'Segoe UI', sans-serif; fill: #95a5a6" transform="translate(67.305714 21.669216)">Perfect</text>
    <text style="font-weight: 700; font-size: 8.5px; font-family: 'Arial', 'DejaVu Sans', 'Segoe UI', sans-serif; fill: #95a5a6" transform="translate(67.305714 30.920437)">classifier</text>
   </g>
   <g id="text_19">
    <g id="patch_12">
     <path d="M 205.463574 371.184326 
L 325.066074 371.184326 
Q 327.466074 371.184326 327.466074 368.784326 
L 327.466074 351.417139 
Q 327.466074 349.017139 325.066074 349.017139 
L 205.463574 349.017139 
Q 203.063574 349.017139 203.063574 351.417139 
L 203.063574 368.784326 
Q 203.063574 371.184326 205.463574 371.184326 
z
" style="fill: #f8f9fa; opacity: 0.8; stroke: #cccccc; stroke-linejoin: miter"/>
    </g>
    <text style="font-style: italic; font-size: 8px; font-family: 'Arial', 'DejaVu Sans', 'Segoe UI', sans-serif; fill: #888888" transform="translate(205.463574 357.840967)">Pipeline variants are deterministic</text>
    <text style="font-style: italic; font-size: 8px; font-family: 'Arial', 'DejaVu Sans', 'Segoe UI', sans-serif; fill: #888888" transform="translate(209.457949 366.524561)">operating points on ROC space</text>
   </g>
   <g id="text_20">
    <text style="font-weight: 700; font-size: 10.5px; font-family: 'Arial', 'DejaVu Sans', 'Segoe UI', sans-serif; fill: #003d6b" transform="translate(141.289355 15.631274)">Figure 6. ROC Space — Pipeline Operating Points</text>
    <text style="font-weight: 700; font-size: 10.5px; font-family: 'Arial', 'DejaVu Sans', 'Segoe UI', sans-serif; fill: #003d6b" transform="translate(184.449277 27.059458)">vs 500-Reference Gold Standard</text>
   </g>
   <g id="PathCollection_1">
    <defs>
     <path id="mbdf2b63257" d="M 0 6.708204 
C 1.779036 6.708204 3.485448 6.001385 4.743416 4.743416 
C 6.001385 3.485448 6.708204 1.779036 6.708204 0 
C 6.708204 -1.779036 6.001385 -3.485448 4.743416 -4.743416 
C 3.485448 -6.001385 1.779036 -6.708204 0 -6.708204 
C -1.779036 -6.708204 -3.485448 -6.001385 -4.743416 -4.743416 
C -6.001385 -3.485448 -6.708204 -1.779036 -6.708204 0 
C -6.708204 1.779036 -6.001385 3.485448 -4.743416 4.743416 
C -3.485448 6.001385 -1.779036 6.708204 0 6.708204 
z
" style="stroke: #ffffff; stroke-opacity: 0.9; stroke-width: 1.5"/>
    </defs>
    <g clip-path="url(#pbcdec13d9d)">
     <use xlink:href="#mbdf2b63257" x="50.091879" y="319.999057" style="fill: #d4380d; fill-opacity: 0.9; stroke: #ffffff; stroke-opacity: 0.9; stroke-width: 1.5"/>
    </g>
   </g>
   <g id="PathCollection_2">
    <defs>
     <path id="mca8520cbce" d="M -6.708204 6.708204 
L 6.708204 6.708204 
L 6.708204 -6.708204 
L -6.708204 -6.708204 
z
" style="stroke: #ffffff; stroke-opacity: 0.9; stroke-width: 1.5"/>
    </defs>
    <g clip-path="url(#pbcdec13d9d)">
     <use xlink:href="#mca8520cbce" x="50.091879" y="318.142498" style="fill: #e67e22; fill-opacity: 0.9; stroke: #ffffff; stroke-opacity: 0.9; stroke-width: 1.5"/>
    </g>
   </g>
   <g id="PathCollection_3">
    <defs>
     <path id="m02bc3f2a31" d="M 0 10.488088 
L 10.488088 0 
L 0 -10.488088 
L -10.488088 0 
z
" style="stroke: #ffffff; stroke-opacity: 0.9; stroke-width: 1.5"/>
    </defs>
    <g clip-path="url(#pbcdec13d9d)">
     <use xlink:href="#m02bc3f2a31" x="50.091879" y="83.844746" style="fill: #27ae60; fill-opacity: 0.9; stroke: #ffffff; stroke-opacity: 0.9; stroke-width: 1.5"/>
    </g>
   </g>
   <g id="PathCollection_4">
    <defs>
     <path id="md7137e6708" d="M 0 -5.477226 
L -1.229714 -1.692556 
L -5.209151 -1.692556 
L -1.989719 0.646499 
L -3.219432 4.431169 
L -0 2.092114 
L 3.219432 4.431169 
L 1.989719 0.646499 
L 5.209151 -1.692556 
L 1.229714 -1.692556 
z
" style="stroke: #ffffff; stroke-opacity: 0.9; stroke-width: 1.5"/>
    </defs>
    <g clip-path="url(#pbcdec13d9d)">
     <use xlink:href="#md7137e6708" x="50.091879" y="44.485694" style="fill: #95a5a6; fill-opacity: 0.9; stroke: #ffffff; stroke-opacity: 0.9; stroke-width: 1.5"/>
    </g>
   </g>
   <g id="legend_1">
    <g id="patch_13">
     <path d="M 400.193125 419.47374 
L 483.794688 419.47374 
Q 485.294688 419.47374 485.294688 417.97374 
L 485.294688 375.569443 
Q 485.294688 374.069443 483.794688 374.069443 
L 400.193125 374.069443 
Q 398.693125 374.069443 398.693125 375.569443 
L 398.693125 417.97374 
Q 398.693125 419.47374 400.193125 419.47374 
z
" style="fill: #ffffff; opacity: 0.9; stroke: #cccccc; stroke-linejoin: miter"/>
    </g>
    <g id="line2d_27">
     <path d="M 401.693125 379.904648 
L 409.193125 379.904648 
L 416.693125 379.904648 
" style="fill: none; stroke: #ffffff; stroke-width: 1.5; stroke-linecap: square"/>
     <defs>
      <path id="m1fbd1bdbd1" d="M 0 5 
C 1.326016 5 2.597899 4.473168 3.535534 3.535534 
C 4.473168 2.597899 5 1.326016 5 0 
C 5 -1.326016 4.473168 -2.597899 3.535534 -3.535534 
C 2.597899 -4.473168 1.326016 -5 0 -5 
C -1.326016 -5 -2.597899 -4.473168 -3.535534 -3.535534 
C -4.473168 -2.597899 -5 -1.326016 -5 0 
C -5 1.326016 -4.473168 2.597899 -3.535534 3.535534 
C -2.597899 4.473168 -1.326016 5 0 5 
z
" style="stroke: #ffffff"/>
     </defs>
     <g>
      <use xlink:href="#m1fbd1bdbd1" x="409.193125" y="379.904648" style="fill: #d4380d; stroke: #ffffff"/>
     </g>
    </g>
    <g id="text_21">
     <text style="font-size: 7.5px; font-family: 'Arial', 'DejaVu Sans', 'Segoe UI', sans-serif; text-anchor: start" x="422.693125" y="382.529648" transform="rotate(-0 422.693125 382.529648)">RW DB pre-filter</text>
    </g>
    <g id="line2d_28">
     <path d="M 401.693125 390.693223 
L 409.193125 390.693223 
L 416.693125 390.693223 
" style="fill: none; stroke: #ffffff; stroke-width: 1.5; stroke-linecap: square"/>
     <defs>
      <path id="md05eb011e3" d="M -5 5 
L 5 5 
L 5 -5 
L -5 -5 
z
" style="stroke: #ffffff; stroke-linejoin: miter"/>
     </defs>
     <g>
      <use xlink:href="#md05eb011e3" x="409.193125" y="390.693223" style="fill: #e67e22; stroke: #ffffff; stroke-linejoin: miter"/>
     </g>
    </g>
    <g id="text_22">
     <text style="font-size: 7.5px; font-family: 'Arial', 'DejaVu Sans', 'Segoe UI', sans-serif; text-anchor: start" x="422.693125" y="393.318223" transform="rotate(-0 422.693125 393.318223)">+ Journal risk</text>
    </g>
    <g id="line2d_29">
     <path d="M 401.693125 401.481797 
L 409.193125 401.481797 
L 416.693125 401.481797 
" style="fill: none; stroke: #ffffff; stroke-width: 1.5; stroke-linecap: square"/>
     <defs>
      <path id="mc226929043" d="M 0 8.485281 
L 8.485281 0 
L 0 -8.485281 
L -8.485281 0 
z
" style="stroke: #ffffff; stroke-linejoin: miter"/>
     </defs>
     <g>
      <use xlink:href="#mc226929043" x="409.193125" y="401.481797" style="fill: #27ae60; stroke: #ffffff; stroke-linejoin: miter"/>
     </g>
    </g>
    <g id="text_23">
     <text style="font-size: 7.5px; font-family: 'Arial', 'DejaVu Sans', 'Segoe UI', sans-serif; text-anchor: start" x="422.693125" y="404.106797" transform="rotate(-0 422.693125 404.106797)">Full pipeline</text>
    </g>
    <g id="line2d_30">
     <path d="M 401.693125 412.270371 
L 409.193125 412.270371 
L 416.693125 412.270371 
" style="fill: none; stroke-dasharray: 4.44,1.92; stroke-dashoffset: 0; stroke: #cccccc; stroke-width: 1.2"/>
    </g>
    <g id="text_24">
     <text style="font-size: 7.5px; font-family: 'Arial', 'DejaVu Sans', 'Segoe UI', sans-serif; text-anchor: start" x="422.693125" y="414.895371" transform="rotate(-0 422.693125 414.895371)">Random classifier</text>
    </g>
   </g>
  </g>
 </g>
 <defs>
  <clipPath id="pbcdec13d9d">
   <rect x="41.484961" y="37.059458" width="447.559727" height="386.164282"/>
  </clipPath>
 </defs>
</svg>
